PathFileType	4	(X/Y/Z)	Patient5_TMGait_0pt45_1_left_14.trc.trc
DataRate	CameraRate	NumFrames	NumMarkers	Units	OrigDataRate	OrigDataStartFrame	OrigNumFrames
62.500000000000	62.500000000000	6	32	mm	62.500000000000	1	       141
Frame#	Time	R.ASIS			L.ASIS			Chest			R.Shoulder			Neck			L.Shoulder			L.Elbow			L.Wrist			R.Elbow			R.Wrist			L.Thigh.Superior			L.Thigh.Lateral			L.Thigh.Inferior			L.Patella			L.Shank.Superior			L.Shank.Lateral			L.Shank.Inferior			L.Heel			L.Midfoot.Lateral			L.Midfoot.Superior			L.Toe			R.Thigh.Superior			R.Thigh.Lateral			R.Thigh.Inferior			R.Patella			R.Shank.Superior			R.Shank.Lateral			R.Shank.Inferior			R.Heel			R.Midfoot.Lateral			R.Midfoot.Superior			R.Toe			
		X1	Y1	Z1	X2	Y2	Z2	X3	Y3	Z3	X4	Y4	Z4	X5	Y5	Z5	X6	Y6	Z6	X7	Y7	Z7	X8	Y8	Z8	X9	Y9	Z9	X10	Y10	Z10	X11	Y11	Z11	X12	Y12	Z12	X13	Y13	Z13	X14	Y14	Z14	X15	Y15	Z15	X16	Y16	Z16	X17	Y17	Z17	X18	Y18	Z18	X19	Y19	Z19	X20	Y20	Z20	X21	Y21	Z21	X22	Y22	Z22	X23	Y23	Z23	X24	Y24	Z24	X25	Y25	Z25	X26	Y26	Z26	X27	Y27	Z27	X28	Y28	Z28	X29	Y29	Z29	X30	Y30	Z30	X31	Y31	Z31	X32	Y32	Z32	

1	21.960000000000	984.527809685119	972.752597228247	580.892240597553	963.822696037547	958.479043758947	339.764059977117	1042.667776628042	1434.753692080816	476.055313989247	946.962631111869	1492.476302094281	648.371375586743	915.357167755272	1557.311729725536	466.614165773271	971.332596847116	1505.034961537057	282.345339341540	878.650493785680	1196.705752182725	146.956804774700	966.738673831092	919.277299108508	162.712601362981	866.215293513029	1173.326561474510	787.902598748835	1077.903382618049	996.282927488515	696.128539781153	980.938631060357	735.873480029412	312.264772080727	903.264161885114	669.758561592785	268.804937935939	981.208126062389	604.681221016978	317.045907267986	966.751852855611	464.534371756604	305.245365826038	872.616393041781	387.690868053241	331.495678112847	770.501183988771	370.351104507162	262.049442955476	780.549562608231	301.043558925401	345.498312419947	541.526399359991	168.958090111998	351.176470117417	603.689516886963	94.314647197485	299.692215464328	719.127035370988	102.556461831453	335.422044101272	784.299576055370	40.219025319186	355.229499285656	1004.665934621984	741.375535463503	606.027204459636	919.705754001639	660.407952759955	652.188530071441	1005.466275422411	612.950093749149	580.098211176666	1006.864962270912	512.946135571829	606.001331599545	961.768349160865	413.876531036615	564.052003394630	886.400863840922	346.698441848585	642.173068365317	937.376717617107	276.267528956869	558.164687495516	806.121464200190	53.800367694564	518.479037097907	881.900723912248	25.415314269704	594.638586637736	988.937336229778	87.731457653800	573.250453441299	1092.286462959994	44.263430734955	577.472398111606	
2	21.976000000000	985.128340586413	971.678749970505	582.180535612715	962.560824582853	957.820556412794	341.939914596116	1044.367078261471	1433.136401567363	479.639527142763	950.225392979276	1490.468158552608	652.842143837363	917.150463793385	1556.239580797189	471.504515917337	972.049665976576	1504.331369896429	286.687514105344	877.672294970247	1196.101744664756	151.887669102982	966.530650353630	918.901250511202	165.763219262052	870.524920096240	1171.823956704602	793.785312704266	1081.597236407951	994.351143214639	701.626358591087	987.891677465479	738.858179364050	312.052311000053	914.133459786099	670.202579762387	268.690073018549	995.614880028066	608.794355890365	316.572932366955	986.245342335284	467.230917505998	305.763494309142	889.299785615383	390.137463108325	331.527657632842	788.398719621803	375.291256264577	260.942320835478	794.304772113635	307.437678762759	345.135993164006	552.280431037752	190.945984978426	349.145077472900	607.948385903530	111.876074923715	297.936078026116	722.972562758061	110.533822320970	334.852000423213	781.165149967853	39.472031227362	354.187840499296	999.426259198810	739.625504533199	604.568847120588	912.778757791351	660.749130151121	653.202924910975	994.729735235978	611.267117452375	578.875729826009	994.298058208543	512.498232372346	604.732198352820	949.192146843165	414.800786277694	563.826045421119	875.982331516576	347.072782583424	642.882978587972	927.009089800068	277.089707033932	558.287952778009	798.377801631702	53.689562579314	518.714870461736	874.157054229036	25.284867765017	594.824593573498	981.125276719334	87.679704570438	573.281339273849	1084.600264683544	44.371458653961	577.441983467963	
3	21.992000000000	985.632593305823	970.565285144406	583.425200568327	961.296190225616	957.174428798029	344.131959874884	1046.025401345747	1431.567904855173	483.020131415070	953.425637517182	1488.440945046420	657.126491629780	918.905539097041	1555.159615345673	476.230312928992	972.659459580396	1503.700135869885	290.860735614539	876.731405494440	1195.488816320242	156.710199755580	966.411392345190	918.532406382759	168.741779502360	874.868007647182	1170.308133544011	799.515037773773	1085.267082287190	992.291725438527	707.064588308955	994.680815598184	742.020168641184	312.170055140738	924.842233094540	670.867026195199	268.754537558774	1009.656550727987	613.119294373582	316.404575154630	1005.294577744718	470.141242479302	306.423695586410	905.696839285647	392.825159293448	331.711781293540	805.967669983183	380.351082775314	259.998859848999	807.862188321786	313.926547089230	344.888670824531	563.029223666513	212.133598477868	347.175311658238	612.733199454036	128.969585167991	296.268639180401	727.280283498147	118.721682588461	334.469972916326	778.842242574867	39.206809936505	353.378876113109	994.069821284330	737.850668883946	603.429604909141	905.736400510402	661.056764377902	654.295750170485	984.097432423395	609.632635680733	577.920785805131	981.890665573915	512.030313834426	603.711922649131	936.771218848387	415.726194776924	563.737518538420	865.576994583226	347.478667061406	643.636264227013	916.744415097788	277.928794119141	558.510133052995	790.709259981230	53.593234261876	518.967956524119	866.495265720589	25.156161935509	595.005855477555	973.397242663483	87.626361268771	573.323485102977	1076.986320659765	44.492064456286	577.422947562869	
4	22.008000000000	985.908482012449	969.400365618537	584.672628696528	960.027015395075	956.566041616721	346.363706712766	1047.648192977131	1430.076945280332	486.038179237483	956.548976651382	1486.401663660188	661.055599054557	920.638959195530	1554.076185973511	480.631830930327	973.155737987943	1503.186349598753	294.714712838400	875.890282417700	1194.873737910831	161.298168026488	966.475372873721	918.191536017437	171.596793347478	879.274103336566	1168.796249626339	804.945252693103	1088.911681369818	990.042470715954	712.379958785269	1001.136943360976	745.537423801935	312.877723732759	935.227122323187	671.983871774438	269.154218307627	1022.999210327659	617.880855666219	316.798474468841	1023.539504784415	473.526857148328	307.364549270093	921.641388550032	395.953519409700	332.196461888595	823.003368899577	385.537091339140	259.384317937498	821.219203469015	320.469596679482	344.891295099826	573.951157204489	231.376229283863	345.368111839322	618.794525539883	144.824225986396	294.776895563775	732.789883188550	127.061351260192	334.416193397456	778.555217293284	39.757728125488	352.946317922156	988.595787642728	736.062057583913	602.867417891947	898.594775719925	661.300805109159	655.515253456738	973.795232446971	608.088067145559	577.442677289578	969.913845692716	511.523663807431	603.131285265024	924.767261719630	416.627548623078	563.887647433636	855.297298531484	347.926430277576	644.452116538850	906.731140505415	278.768328777663	558.895158888618	783.137989216095	53.522842847838	519.243539592947	858.944790081129	25.033514738127	595.177739509856	965.785694121231	87.574735669814	573.389519193858	1069.468068145354	44.626726645317	577.424147657723	
5	22.024000000000	985.833214073297	968.192631063894	586.033669248342	958.773132618301	956.024913292612	348.660154679789	1049.272376755391	1428.671870166125	488.599864404845	959.624544657153	1484.370260944828	664.515912469606	922.399894729975	1552.998979471753	484.598274393760	973.586983391433	1502.814432134418	298.151698655705	875.209867254938	1194.281419437815	165.540140719548	966.803207077350	917.914833786527	174.312688831683	883.755753914594	1167.323628123197	809.971926421508	1092.543360941504	987.608294100604	717.523432154323	1007.142478344230	749.534048527330	314.322419809231	945.166448042773	673.737151466617	269.981095945930	1035.411871799375	623.241505178138	317.913295658426	1040.756340288080	477.602979879742	308.676889671194	937.069579145495	399.636837740906	333.070899941105	839.397939468416	390.799481687911	259.220793616995	834.470364632699	326.933333683543	345.236560035717	585.235182106859	247.539505465151	343.807575890584	626.827141459127	158.600827240709	293.533885634030	740.243293691162	135.334875269051	334.766201569134	781.573017699794	41.383005913058	352.978566324823	983.084641320020	734.305715147389	603.017136177916	891.488753384065	661.456769845286	656.883994863622	964.107511990164	606.665854242368	577.554631849923	958.692313364181	510.964043860241	603.096175617371	913.497254696275	417.459084266311	564.335505965044	845.334949168357	348.398964566668	645.335335739028	897.134580117145	279.560269647560	559.472598958762	775.648749123258	53.483256725586	519.538090166424	851.496236198935	24.921503229223	595.338426767818	958.283183334392	87.527742047166	573.488593874785	1062.033552177485	44.768640316221	577.449457309808	
6	22.040000000000	985.320158292338	966.977695513856	587.648042872702	957.575412971313	955.584738444140	351.023736332660	1050.956577554075	1427.342449210636	490.684421349227	962.706894880898	1482.387228688274	667.451720981172	924.259806825162	1551.946641833029	488.063922870865	974.063964778686	1502.576645409769	301.125541360517	874.749655276093	1193.745674128224	169.339785044618	967.446696984368	917.739581556509	176.894696725879	888.291471751715	1165.943865177963	814.527304937713	1096.174492718029	985.071221006808	722.443376187782	1012.617646104750	754.051999531979	316.506087725782	954.557235343828	676.225920567027	271.247805990136	1046.751216442916	629.262566352162	319.782165398025	1056.827045396973	482.500260784353	310.395968414570	951.988446449653	403.867961827712	334.356189554876	855.124088812756	395.993457835232	259.572399388784	847.772847260592	333.071239319755	345.966676214796	597.086448674175	259.599286754550	342.569580386077	637.382505114744	169.471511861983	292.588384433736	750.284502880621	143.150005358753	335.508688671805	789.024620550497	44.156606804692	353.460174867724	977.709280350318	732.655144275662	603.879637023655	884.664035469569	661.511213582145	658.382785355873	955.359052635976	605.387873268591	578.257802210064	948.575309748713	510.349344851851	603.610979622756	903.305827605125	418.160432921745	565.081160667291	835.952599477326	348.859189326330	646.267396227468	888.138638918043	280.236148101747	560.226877246850	768.215645551251	53.472600155326	519.837375231263	844.126173342913	24.825362546784	595.487609215325	950.867942924746	87.488475108494	573.624675428678	1054.661845442042	44.903984515398	577.497688370161	
